<svg width="287" height="604" viewBox="0 0 287 604" fill="none" xmlns="http://www.w3.org/2000/svg">
<path d="M66 564.6L70 593.2C70.6 597.5 74.6 600.7 79.4 600.7H207.6C212.4 600.7 216.4 597.5 217 593.2L221 564.6H66Z" fill="#D6D6D4"/>
<path d="M204.7 600.7L214 598.3L220.8 564.6H66L67.5 575.6H195.3C195.4 575.6 195.4 575.6 195.5 575.6C213.8 575.6 204.7 600.7 204.7 600.7Z" fill="#BABABA"/>
<path d="M236.3 554.9L271.3 275.4H15.5L50.5 554.9C51.2 560.4 56 564.6 61.7 564.6H225.2C230.9 564.6 235.6 560.5 236.3 554.9Z" fill="#5EB173"/>
<path opacity="0.34" d="M136.3 504.2C133.8 504.2 131.9 502.9 131.2 502.4C129 500.6 127.7 497.6 127.6 494C127.4 489.6 129 485.3 131.8 482.6C132.6 481.9 134.9 479.6 137.9 479.6C138.2 479.6 138.5 479.6 138.8 479.7C140.8 480 142.6 481.3 144 483.5C146.2 486.8 146.9 491.3 146 495.1C144.9 499.5 141.2 504.2 136.5 504.3L136.3 504.2ZM137.3 490.4C136.4 492.5 136.6 493.8 136.9 494.1C136.9 494.1 137 494.1 137 494.2C137.1 494.1 137.3 493.8 137.5 493.3C137.8 492.3 137.6 491.2 137.3 490.4Z" fill="#60A06C"/>
<path opacity="0.34" d="M147.9 516.6C146.6 516.6 145.3 516.2 144.3 515.5C142.1 514 142.2 512 142.8 504.7C143.2 500.1 143.8 493 144.3 482C144.3 481.4 144.4 480.9 144.4 480.3C144.3 480.3 144.3 480.3 144.2 480.3C144 480.3 143.7 480.3 143.5 480.3C142.7 480.4 141.9 480.4 141.1 480.4C140.2 480.4 139.4 480.5 138.6 480.6C138.3 480.6 138 480.7 137.7 480.7C137.1 480.8 136.6 480.8 136.2 480.8C135.3 480.8 134.6 480.5 134 479.9C131.9 477.8 134.2 473.3 135.9 471.6C137.3 470.3 139.2 469.6 141.5 469.6C142.8 469.6 144.3 469.8 146.1 470.2C147.2 467 148.8 464.7 150.8 463.3C151.6 462.7 153.8 461.2 156.7 461.2C157.1 461.2 157.5 461.2 157.9 461.3C158.5 461.4 160.4 461.7 162 463.2C163.5 464.7 163.9 466.7 163.9 468.1C164.7 467.8 165.5 467.6 166.5 467.6C166.9 467.6 167.2 467.6 167.6 467.7C168.2 467.8 169.9 468 171.3 469.5C173.6 471.8 173 475.1 172.9 475.7L172.5 477.4C172.8 477.3 173.1 477.1 173.3 476.9C173.9 476.3 174.3 475.4 174.4 474.1L174.7 470L179.8 474.8L180 475.1C180.9 476.9 180.3 479.2 178.2 481.8C176.7 483.7 173.8 484.6 169.4 484.6C168.1 484.6 166.6 484.5 165 484.3C164.4 489.2 164.5 494.6 164.5 494.6C164.6 496.6 164.6 498.5 164.7 500.1C165 509 165.1 512.6 162.3 514.7C161.3 515.4 160 515.8 158.7 515.8C157.5 515.8 156.4 515.5 155.4 514.8C154.4 514.1 153.9 513.4 153.7 512C153.3 513.2 152.6 514.1 151.6 514.9C150.8 516.1 149.4 516.6 147.9 516.6ZM154.7 482.5C154.3 487.5 154.4 492.3 154.4 492.3C154.5 494.6 154.5 496.7 154.6 498.6C154.6 499.4 154.7 500.1 154.7 500.8C155 497.1 155.3 492.3 155.6 485.9C155.6 484.8 155.7 483.8 155.8 482.8C155.4 482.7 155.1 482.6 154.7 482.5ZM167.6 477.6C168.8 477.8 169.8 478 170.6 478C170.9 478 171.2 478 171.5 477.9L170.2 477.2C169.8 477 169.4 476.9 169.1 476.9C169 476.9 168.9 476.9 168.8 476.9C168.7 476.9 168.1 477.1 167.6 477.6ZM157.8 474.3C158.3 473.1 159 472 159.7 471.2C159.6 471.2 159.6 471.2 159.5 471.2C159.4 471.2 159.2 471.2 159.1 471.2C159.1 471.2 158.1 471.4 157.1 472.5C156.9 472.7 156.6 473.1 156.3 473.8C156.5 473.8 157.5 474.2 157.8 474.3Z" fill="#60A06C"/>
<path opacity="0.34" d="M170.5 506.7C168.2 506.7 166.2 506 164.9 504.7C163 502.8 162.3 499.3 163.2 495.3C164.1 490.9 167 485 172.3 482.8C172.8 482.6 174.6 481.9 176.7 481.9C178.6 481.9 180.2 482.5 181.5 483.5C184 485.6 184.4 489.2 183.7 491.7C183 494.3 181.1 496 178.9 497.1C179.1 497.4 179.4 497.8 179.4 498.5C179.6 500 178.8 502.4 177.1 504.1C175.6 505.7 173.1 506.7 170.5 506.7ZM175.6 489.8C175.3 489.9 175 490.1 174.6 490.4C175 490.2 175.3 490 175.6 489.8Z" fill="#60A06C"/>
<path opacity="0.34" d="M186.6 507.1C184.3 507.1 182 506.3 180.7 504.8C178.8 502.8 178.2 499.6 178.9 495.8C179.9 491 182.9 486.9 186.5 485.4C187.8 484.9 189.3 484.6 190.7 484.6C193 484.6 194.8 485.3 196 486.7C198.2 489.2 197.4 492.7 197.1 493.7C196.5 495.8 195.1 497.4 193.4 498.5C193.7 498.8 194 499.3 194 500C194.1 501.4 193.4 503.7 191.8 505.1C190.6 506.4 188.7 507.1 186.6 507.1Z" fill="#60A06C"/>
<path opacity="0.34" d="M113.4 515C111.8 515 110.3 514.8 108.8 514.3C103.8 512.8 99.8 508.7 97.5 502.8C95 496.4 95.8 488.3 99.4 481C97.9 481.3 96.6 482.1 95.4 482.8C94.1 483.6 93 484.2 91.8 484.2C91.1 484.2 90.5 484 89.9 483.6C88.8 482.7 88.2 481.1 88.3 479.1C88.4 476.7 89.5 473.4 92.2 471.9C93.2 471.3 94.4 471 95.7 471C98.3 471 101.3 472.2 104.4 473.6C107.4 470.2 110.9 467.9 114.5 466.7C116.5 466.1 118.5 465.7 120.2 465.7C122.8 465.7 124.9 466.5 126.2 468C129.2 471.4 127.8 477.5 124.7 481.1C123.2 482.8 120.4 484.9 115.4 485.2C115.1 485.2 114.9 485.2 114.6 485.2C112.7 485.2 111.1 484.8 109.3 484.2C108.8 484.1 108.4 483.9 108 483.8C106.1 490.5 107 497.7 110.2 500.4C111.2 501.2 112.9 502.1 114.7 502.1C115.1 502.1 115.5 502.1 115.8 502C115.9 502 118.6 501.3 119.1 499.2C119.4 498.2 119.2 496.9 118.6 496.2C118.2 495.7 117.6 495.5 117 495.2C116.4 495 114.8 494.3 115 492.6C115.2 490.7 117.6 489.8 119.7 489.8C120.3 489.8 120.9 489.9 121.5 490C126.1 491.2 129.5 497.7 128.4 503.4C127.5 508.2 123.9 510.8 122.7 511.7C120.1 514 116.8 515 113.4 515ZM111.5 477.2C112.7 477.8 113.5 478.1 114.3 478.1C114.5 478.1 114.7 478.1 114.9 478.1C116.6 477.9 118.6 476.9 119.1 475.3C119.4 474.5 119.3 473.7 119.1 473.6C119.1 473.6 118.8 473.4 118.3 473.4C117.1 473.4 115.6 473.9 114.6 474.5L114.5 474.6C113.4 475.2 112.4 476.1 111.5 477.2Z" fill="#60A06C"/>
<path d="M15.5 275.4L18.2 297.4H231C239.1 297.4 245.4 304.5 244.4 312.6L222.2 542.6C221.3 551.4 214.7 558.6 206 560.2L181 564.7H216.6H225.1C230.8 564.7 235.6 560.6 236.3 555L271.3 275.5H15.5V275.4Z" fill="#60A06C"/>
<path d="M66 564.6L70 593.2C70.6 597.5 74.6 600.7 79.4 600.7H207.6C212.4 600.7 216.4 597.5 217 593.2L221 564.6H66Z" stroke="#474747" stroke-width="6" stroke-miterlimit="10" stroke-linecap="round" stroke-linejoin="round"/>
<path d="M236.3 554.9L271.3 275.4H15.5L50.5 554.9C51.2 560.4 56 564.6 61.7 564.6H225.2C230.9 564.6 235.6 560.5 236.3 554.9Z" stroke="#474747" stroke-width="6" stroke-miterlimit="10" stroke-linecap="round" stroke-linejoin="round"/>
<path d="M276.8 275.4C187.9 275.4 98.9 275.4 9.99999 275.4C1.29999 275.5 2.49999 270.8 5.49999 261.9C7.29999 256.6 7.29999 250.9 5.49999 245.7C2.49999 236.7 1.29999 232.1 9.99999 232.2C98.9 232.2 187.9 232.2 276.8 232.2C285.5 232.1 284.3 236.8 281.3 245.7C279.5 251 279.5 256.7 281.3 261.9C284.3 270.8 285.5 275.5 276.8 275.4Z" fill="#646464"/>
<path d="M281.3 245.6C283.2 239.8 284.4 235.8 282.7 233.7C282.3 235 281.8 236.5 281.3 238.1C280 241.9 279.7 246 280.2 250C280.5 248.5 280.8 247.1 281.3 245.6Z" fill="#7C7C7C"/>
<path d="M6.59999 250C7.19999 246 6.89999 242 5.49999 238.1C4.99999 236.5 4.49999 235.1 4.09999 233.7C2.39999 235.8 3.49999 239.8 5.49999 245.6C5.99999 247.1 6.39999 248.5 6.59999 250Z" fill="#7C7C7C"/>
<path d="M282.7 266.2C281.7 267.3 279.9 267.9 276.8 267.9C187.9 267.9 98.9 267.9 10 267.9C6.90001 267.9 5.10002 267.4 4.10002 266.2C2.40002 272.3 2.80001 275.4 10 275.4C98.9 275.4 187.9 275.4 276.8 275.4C284 275.5 284.4 272.3 282.7 266.2Z" fill="#7C7C7C"/>
<path d="M281.3 261.9C281.1 261.4 281 260.9 280.9 260.4C279.6 265.1 279.7 270.1 281.2 274.8C284.9 273.3 283.6 268.9 281.3 261.9Z" fill="#646464"/>
<path d="M6.9 255.5C7.9 255.1 11.8 245.4 17.8 245.4C106.7 245.4 182.4 245.4 271.3 245.4C278.5 245.4 279.8 260 280.9 260.4C280.9 260.3 281.3 245.7 281.3 245.6C284.3 236.6 285.5 232 276.8 232.1C188 232.1 99.1 232.1 10.3 232.1C1.29999 231.9 2.5 236.6 5.5 245.6C5.6 245.8 6.8 255.4 6.9 255.5Z" fill="#646464"/>
<path d="M5.70002 274.8C7.20002 270.1 7.30001 265.1 6.00001 260.4C5.90001 260.9 5.70002 261.4 5.60002 261.9C3.20002 268.9 1.90002 273.3 5.70002 274.8Z" fill="#646464"/>
<path d="M276.8 275.4C187.9 275.4 98.9 275.4 9.99999 275.4C1.29999 275.5 2.49999 270.8 5.49999 261.9C7.29999 256.6 7.29999 250.9 5.49999 245.7C2.49999 236.7 1.29999 232.1 9.99999 232.2C98.9 232.2 187.9 232.2 276.8 232.2C285.5 232.1 284.3 236.8 281.3 245.7C279.5 251 279.5 256.7 281.3 261.9C284.3 270.8 285.5 275.5 276.8 275.4Z" stroke="#474747" stroke-width="6" stroke-miterlimit="10" stroke-linecap="round" stroke-linejoin="round"/>
<path d="M269.1 232.1H17.8L20.3 223.3C24.2 209.3 37.6 199.6 52.9 199.6H234C249.3 199.6 262.6 209.3 266.6 223.3L269.1 232.1Z" fill="#D6D6D4"/>
<path d="M269.1 232.1H17.8L20.3 223.3C24.2 209.3 37.6 199.6 52.9 199.6H234C249.3 199.6 262.6 209.3 266.6 223.3L269.1 232.1Z" fill="#D6D6D4"/>
<path d="M70.5 210L242 209.9C254.4 209.9 262 218.8 265.5 219.9C259.4 210.8 245.9 199.6 234.1 199.6H52.8C37.5 199.6 24.2 209.3 20.2 223.3L17.7 232.1H39.5C44.8 220.5 56.9 210 70.5 210Z" fill="white"/>
<path d="M269.1 232.1H17.8L20.3 223.3C24.2 209.3 37.6 199.6 52.9 199.6H234C249.3 199.6 262.6 209.3 266.6 223.3L269.1 232.1Z" stroke="#474747" stroke-width="6" stroke-miterlimit="10" stroke-linecap="round" stroke-linejoin="round"/>
<path d="M219.6 199.6H151V193.2C151 185.8 157 179.7 164.5 179.7H206.2C213.6 179.7 219.7 185.7 219.7 193.2V199.6H219.6Z" fill="#D6D6D4"/>
<path d="M219.6 199.6H151V193.2C151 185.8 157 179.7 164.5 179.7H206.2C213.6 179.7 219.7 185.7 219.7 193.2V199.6H219.6Z" fill="#D6D6D4"/>
<path d="M151.1 199.4C151.1 192.3 156.8 186.6 163.9 186.6H206.9C213.4 186.6 218.8 191.5 219.6 197.8V192.6C219.6 185.5 213.9 179.8 206.8 179.8H163.8C156.7 179.8 151 185.5 151 192.6V199.6H151.1V199.4V199.4Z" fill="white"/>
<path d="M135.3 434.4C124.7 434.4 105.5 426.9 99.4 406.8C93.4 390.4 96 371.1 106.1 356.6C113.5 346 123.6 340 133.8 340C136.9 340 140 340.6 143 341.7L143.1 341.8L143.2 341.9C145.3 343.1 146.5 344.5 146.9 346.2C147.5 349.1 145.6 351.8 143.1 355.2C138.1 362.1 131.3 371.5 138 389C145.8 409.2 145.8 428.4 141 433C140 433.9 138 434.4 135.3 434.4Z" fill="#60A06C"/>
<path d="M219.6 199.6H151V193.2C151 185.8 157 179.7 164.5 179.7H206.2C213.6 179.7 219.7 185.7 219.7 193.2V199.6H219.6Z" stroke="#474747" stroke-width="6" stroke-miterlimit="10" stroke-linecap="round" stroke-linejoin="round"/>
<path d="M162.8 434.1C158.9 434.1 155.3 432.6 152.8 430C150.7 427.7 149.6 424.8 149.8 421.7C150.3 413.7 147.6 406.1 145 398.7C142.6 392 140.3 385.6 140.3 379C140.2 354.6 156.6 346.9 158.6 346.1C159.9 345.3 161.4 344.9 163 344.9C169.5 344.9 177.5 351.3 183.3 361.2C187.2 367.8 198.7 391.5 183.6 418.7C178.1 428.5 170.6 434.1 162.8 434.1Z" fill="#60A06C"/>
<path d="M143.3 340.5C155.1 347.2 125.2 355.4 137.2 386.6C145.4 407.9 144.2 425.1 140.7 428.4C137.2 431.7 109.8 427.8 102.2 403.2C89.8 369.4 116.8 330.6 143.3 340.5Z" fill="#F6F9E4"/>
<path d="M160.5 344.9C160.5 344.9 143.2 351.7 143.3 376.1C143.3 389.7 153.8 403.4 152.8 418.9C152.1 429.7 170.6 436.9 182.9 414.8C204.4 375.8 172.4 337.3 160.5 344.9Z" fill="#F6F9E4"/>
<path d="M132.2 482C127.6 486.4 127.4 495.5 131.5 498.8C131.8 499 133.3 500.3 135.5 500.2C139.3 500.1 142.2 495.9 143.1 492.5C144.5 487.1 141.6 480.3 137.6 479.6C135.1 479.2 132.9 481.3 132.2 482ZM138.3 491.9C138.2 492.2 137.6 494 136.2 494.2C135.3 494.3 134.6 493.7 134.5 493.6C133.3 492.5 133.4 490 134.6 487.3C135.4 486.1 136 485.8 136.4 485.9C137.8 485.9 139.3 489.3 138.3 491.9Z" fill="#F6F9E4"/>
<path d="M144.4 511.9C142.3 510.5 144.1 507.3 145.3 480.1C145.6 472.6 147.2 465.8 151.1 463.1C151.9 462.6 154.1 461 156.8 461.4C157.4 461.5 158.7 461.7 159.7 462.8C161.6 464.7 161 467.6 160.9 467.8C160.3 467.5 159.2 467 157.8 467.2C157.8 467.2 156.2 467.5 154.7 469.1C150.9 473.2 151.3 490.4 151.3 490.4C151.7 504.7 152.4 509.7 149.6 511.7C148.3 512.8 146 512.9 144.4 511.9Z" fill="#F6F9E4"/>
<path d="M155.8 511.6C154 510.4 155.5 507.6 156.6 484.1C156.9 477.6 158.3 471.7 161.6 469.4C162.3 468.9 164.2 467.6 166.5 468C167 468.1 168.1 468.3 169.1 469.2C170.7 470.8 170.2 473.3 170.1 473.6C169.6 473.3 168.6 472.9 167.4 473.1C167.4 473.1 166 473.3 164.7 474.7C161.4 478.3 161.8 493.1 161.8 493.1C162.1 505.5 162.7 509.8 160.3 511.5C159.1 512.4 157.2 512.5 155.8 511.6Z" fill="#F6F9E4"/>
<path d="M172.6 498.4C171.7 498.6 170.5 498.6 169.6 498C167.5 496.5 168.2 491.2 170.8 488.1C171.2 487.7 173.5 485.1 175.6 485.8C176.2 486 177 486.6 177 487.3C177.1 489 173.6 490.9 170.5 491.1C168.8 491.2 167.4 490.8 166.6 490.5C165.7 491.8 165.8 492.6 165.9 492.9C166.5 494.8 170.8 494.7 171.4 494.6C171.8 494.6 179.3 494.1 180.7 489C181.2 487.1 180.9 484.4 179.1 482.8C176.5 480.6 172.5 482.1 172 482.4C164.9 485.2 161.7 497.4 165.3 501C167.4 503.1 172.3 502.8 174.7 500.5C176.3 498.9 176.7 496.4 176.2 496.1C175.9 496.1 174.9 497.9 172.6 498.4Z" fill="#F6F9E4"/>
<path d="M187.7 499.7C186.9 499.9 185.8 499.9 185.1 499.4C183.2 498 184 493.3 186.2 490.6C186.5 490.2 188.2 488.1 189.6 488.6C190.3 488.8 190.8 489.6 190.8 490.3C190.7 491.9 188 493.1 186 493.3C184.5 493.5 183.2 493.1 182.5 492.8C181.7 493.9 181.8 494.7 181.9 494.9C182.4 496.4 185.3 496.6 186.8 496.4C189.4 496.2 193.3 494.6 194.3 491.1C194.4 490.7 195.2 487.8 193.6 486C191.8 484 188.4 484.4 186.3 485.2C180.4 487.6 177.7 497.9 181.1 501.4C183.1 503.4 187.5 503.6 189.6 501.7C191.1 500.4 191.4 498.1 191 497.8C190.6 497.6 189.7 499.2 187.7 499.7Z" fill="#F6F9E4"/>
<path d="M175.6 472.4C175.5 473.7 175.1 475.3 173.9 476.5C167 483.1 143.2 464.6 136.5 471.2C135 472.6 133.8 475.8 134.6 476.7C135 477.1 135.7 476.9 137.5 476.7C139.1 476.5 140.8 476.6 142.4 476.4C146.4 476 152.5 478.4 158.8 479.8C160.4 480.1 173 482.7 176 478.9C176.4 478.4 178.3 475.9 177.5 474.3C176.8 473.6 176.2 473 175.6 472.4Z" fill="#F6F9E4"/>
<path d="M105.6 474.9C109.9 477 111.3 478.4 114.1 478.1C116.3 477.8 119.2 476.5 120 473.9C120.3 472.9 120.5 471.1 119.6 470.2C118.2 468.7 114.7 469.7 112.7 470.7C112.7 470.7 112.6 470.8 112.5 470.8C103.8 475.5 101.1 494.3 108.1 500.2C109.9 501.7 112.7 502.9 115.5 502.2C115.9 502.1 119.4 501.2 120.3 498C120.7 496.4 120.4 494.5 119.4 493.2C118.1 491.7 116.2 491.6 116.3 491.1C116.3 490.6 118.4 489.8 120.3 490.3C123.9 491.2 126.6 496.7 125.7 501.4C124.9 505.4 121.8 507.7 120.8 508.4C117.2 511 112.5 511.6 108.5 510.4C101.7 508.3 99.1 501.5 98.5 500.1C93.6 487.5 102.8 470.3 114.3 466.7C115.1 466.4 121.3 464.5 123.9 467.4C126.1 469.9 124.9 475 122.4 477.8C119.6 481 115.6 481.2 114.5 481.3C112.5 481.4 111 481 109 480.4C103.9 479 103.6 477.4 100.8 476.9C95.4 476.1 92 481.3 90.2 480C88.6 478.8 89.3 473.3 92.3 471.6C95.2 469.9 100 472.2 105.6 474.9Z" fill="#F6F9E4"/>
<path d="M220.7 54.4C212.9 65.3 204.3 68 197.7 80.7C195.9 84.2 190.6 94.4 192.2 106.7C194.3 122.9 206.5 127.1 207.7 141.7C208.2 148.3 206.4 156.3 199.7 165.7" stroke="#474747" stroke-width="6" stroke-miterlimit="10" stroke-linecap="round" stroke-linejoin="round"/>
<path d="M245.7 3.10001C251.8 28.4 247.4 44 242.2 53.6C232.7 71.1 215.4 77.9 214.2 95.5C213.6 103.8 216.9 110.8 219.6 115.2" stroke="#474747" stroke-width="6" stroke-miterlimit="10" stroke-linecap="round" stroke-linejoin="round"/>
<path d="M188.4 63.1C188.4 63.1 176.4 77.1 176.4 89.8" stroke="#474747" stroke-width="6" stroke-miterlimit="10" stroke-linecap="round" stroke-linejoin="round"/>
</svg>
